<svg width="12" height="20" viewBox="0 0 12 20" fill="none" xmlns="http://www.w3.org/2000/svg">
<path d="M3.20775 20.0008C3.20971 19.0056 3.21562 18.0103 3.21562 17.0151C3.21562 14.769 3.21562 12.5214 3.21562 10.2754V10.0056H0.0157532C0.0118149 9.9373 0.0039383 9.88651 0.0039383 9.83413C0.0039383 8.80079 0.00590745 7.76905 0 6.73571C0 6.59762 0.0433213 6.55317 0.226452 6.55476C1.14998 6.5627 2.07548 6.55476 2.99902 6.56111C3.17427 6.56111 3.21759 6.52143 3.21562 6.38968C3.20775 5.71349 3.20578 5.0373 3.21365 4.36111C3.22153 3.66905 3.28257 2.98016 3.53462 2.3119C3.90679 1.32619 4.67476 0.623016 5.95274 0.289683C6.70692 0.0928572 7.48277 0.00873016 8.2724 0.00396825C9.45783 -0.00238095 10.6413 0.000793651 11.8267 0.000793651C11.8661 0.000793651 11.9075 0.00396825 11.9606 0.00555556V3.44524C11.872 3.44524 11.7932 3.44524 11.7125 3.44524C11.0272 3.44524 10.342 3.44048 9.65868 3.45C9.38694 3.45476 9.11323 3.48333 8.84739 3.52302C8.42402 3.58651 8.08927 3.86429 8.06761 4.23413C8.02232 4.99762 8.01838 5.76429 7.99672 6.55159H12C11.8444 7.70873 11.6908 8.84048 11.5353 9.99127H8.01641V20.0008H3.20775Z" fill="#D4C17F"/>
</svg>
