<svg width="50" height="50" viewBox="0 0 50 50" fill="none" xmlns="http://www.w3.org/2000/svg">
<path d="M49.4613 25.7805C46.0335 19.9702 42.5645 14.1939 39.1929 8.34103C38.3972 6.95989 37.603 5.99718 36.0604 6.33906C35.3135 6.50575 35.1496 6.038 35.1762 5.26919C35.2175 4.07004 35.1791 2.8675 35.188 1.66666C35.1954 0.588278 34.7983 -0.0104433 33.8092 -0.000237854C32.4969 0.0133694 31.1831 0.00316397 29.8707 0.00486488C28.9629 0.00486488 28.5304 0.51854 28.5481 1.57481C28.5673 2.73143 28.4905 3.89315 28.5702 5.04296C28.644 6.10093 28.3385 6.37818 27.4232 6.36968C22.5592 6.31525 17.6937 6.35267 12.8281 6.33566C12.1358 6.33396 11.5763 6.43771 11.1394 7.18271C7.55371 13.2975 3.93114 19.3833 0.342521 25.4964C-0.379335 26.7262 0.0738547 27.6396 1.38619 27.6702C2.7369 27.7008 4.09204 27.745 5.43833 27.6549C6.33585 27.5936 6.52333 27.9593 6.51742 28.934C6.48052 35.2954 6.49676 41.6568 6.49971 48.0182C6.49971 49.8093 6.66356 49.9998 8.23718 49.9998C14.1065 50.0032 19.9744 49.9998 25.8437 49.9998C31.7514 49.9998 37.6591 50.0032 43.5668 49.9981C45.0563 49.9981 45.043 49.4725 45.043 47.7699C45.046 42.3423 45.043 39.4201 45.043 33.9925C45.043 29.15 44.7758 29.3099 45.3383 28.6397C45.9553 27.9066 47.5525 28.2995 48.7335 28.1294C48.7335 28.1294 49.4716 27.9593 49.7668 27.529C50.2894 26.7687 49.82 26.3877 49.4613 25.7805ZM7.28652 24.7344C7.03999 25.1562 6.75509 25.3059 6.32847 25.294C5.29366 25.2685 4.25738 25.2855 2.97309 25.2855C6.09671 19.9974 9.11404 14.8912 12.1978 9.67115C12.8267 10.7206 13.3551 11.6459 13.9235 12.5372C14.1862 12.9488 14.077 13.2397 13.8615 13.602C11.6619 17.3048 9.46685 21.0145 7.28652 24.7327V24.7344ZM18.0996 47.6304C15.3701 47.7648 15.3716 47.7886 15.3716 44.6657C15.3716 41.6415 15.3672 38.6173 15.3731 35.5947C15.376 34.3837 15.934 33.8802 17.205 33.9091C18.448 33.938 18.8717 34.3667 18.8761 35.6271C18.882 37.4504 18.8776 39.2738 18.8761 41.0972C18.8761 42.9648 18.8554 44.8324 18.8864 46.7C18.8982 47.3872 18.7063 47.6015 18.0981 47.6321L18.0996 47.6304ZM27.4675 47.6338C25.6547 47.5624 23.8361 47.5624 22.0233 47.6338C21.1671 47.6678 20.8985 47.3991 20.9117 46.3768C20.9649 42.5072 20.8926 38.6343 20.959 34.7647C20.9782 33.6098 20.5722 32.9243 19.7943 32.3817C18.4613 31.4547 17.0471 31.2438 15.5665 31.7915C13.8246 32.4344 13.3197 33.2628 13.3197 35.3838C13.3197 38.9881 13.2695 42.594 13.3478 46.1948C13.3596 46.7357 13.299 47.0504 13.144 47.2477C13.0924 47.314 12.9167 47.5147 12.0472 47.6321C11.6309 47.6882 11.5748 47.6559 10.7954 47.6899C10.2669 47.7137 9.95842 47.7426 9.46685 47.6899C9.03432 47.644 8.8188 47.5709 8.68299 47.3787C8.51913 47.1473 8.54866 46.8395 8.54866 46.7527C8.56933 40.3012 8.56047 33.8496 8.56047 27.398C8.56047 27.0851 8.57818 26.7857 8.74352 26.5085C10.9608 22.7648 13.1721 19.0177 15.4528 15.1583C17.4678 18.5635 19.3927 21.8837 21.3797 25.1562C23.8213 29.1806 22.478 28.3591 26.691 28.4407C28.5525 28.4764 28.554 28.4475 28.554 30.64C28.554 35.8907 28.5274 41.1414 28.5761 46.3904C28.585 47.4195 28.3178 47.6678 27.469 47.6338H27.4675ZM42.287 47.6287C38.6969 47.5913 35.1068 47.5913 31.5167 47.6287C30.7963 47.6355 30.6044 47.3667 30.6147 46.5639C30.6516 43.7183 30.6295 40.871 30.6295 38.0253C30.6295 35.1797 30.6546 32.3324 30.6147 29.4868C30.6029 28.6686 30.8199 28.4271 31.5255 28.4339C35.1156 28.4696 38.7057 28.473 42.2958 28.4322C43.0221 28.4237 43.1993 28.6941 43.1948 29.497C43.1668 35.1899 43.1668 40.8829 43.1948 46.5758C43.1993 47.394 42.9985 47.6389 42.2855 47.6304L42.287 47.6287ZM45.9302 26.0883C39.0969 26.0781 32.2636 26.0645 25.4318 26.0645C24.834 26.0645 24.3616 26.0203 23.963 25.3348C20.866 20.0212 17.7261 14.7399 14.6025 9.44662C14.5007 9.27483 14.4254 9.08263 14.2586 8.73734C16.864 8.73734 19.3204 8.73734 21.7783 8.73734C23.6309 8.73734 25.4894 8.82579 27.3361 8.70333C28.4196 8.63189 28.5097 8.90744 28.5097 10.0981C28.5097 11.5626 28.5097 11.799 28.5481 14.6004C28.5599 15.4593 28.7459 16.1822 29.577 16.1924C30.4066 16.2026 30.6339 15.49 30.6325 14.6276C30.6236 10.9366 30.6841 7.24224 30.6 3.55297C30.5705 2.25007 31.1609 2.39635 31.8798 2.38444C32.6268 2.37253 33.173 2.31981 33.1435 3.58018C33.0608 7.18101 33.1198 10.7852 33.111 14.3878C33.1095 15.2876 33.1479 16.2163 34.1709 16.1907C35.092 16.1669 35.1909 15.2927 35.1895 14.4371C35.1865 12.9692 35.154 12.6494 35.154 11.1186C35.1496 10.9928 35.1481 10.8176 35.154 10.6083C35.185 9.5861 35.2013 9.04861 35.5127 8.79518C35.8729 8.50262 36.4959 8.69482 36.7365 8.82749C36.7483 8.8343 36.7557 8.8377 36.7586 8.8394C36.9624 8.94996 37.1557 9.14046 37.3299 9.44833C39.0807 12.5372 40.9126 15.5648 42.7136 18.6145C44.1396 21.0281 45.5656 23.4417 47.1303 26.0883C46.5827 26.0883 46.2579 26.0883 45.9317 26.0883H45.9302Z" fill="#D4C17F"/>
<path d="M33.9671 21.8193V21.804C31.3439 21.804 28.7207 21.8142 26.099 21.7972C25.3476 21.7921 24.6022 21.867 24.5903 22.9436C24.5785 24.0883 25.3565 24.204 26.1507 24.2023C31.3572 24.1955 36.5652 24.1955 41.7717 24.2023C42.5423 24.2023 43.2243 24.0237 43.2243 22.9589C43.2243 21.9401 42.5511 21.8142 41.8352 21.8159C39.212 21.8244 36.5903 21.8193 33.9671 21.8193Z" fill="#D4C17F"/>
</svg>
