<svg width="21" height="21" viewBox="0 0 21 21" fill="none" xmlns="http://www.w3.org/2000/svg">
<path d="M19.9999 5.12082V14.8856C19.947 15.1828 19.9086 15.4832 19.8381 15.7773C19.4631 17.3303 18.5147 18.4716 17.1688 19.2887C16.7507 19.543 16.254 19.6813 15.7813 19.8355C15.4945 19.9293 15.1837 19.9483 14.8841 20.0024H5.12204C5.0916 19.9929 5.06116 19.9801 5.02912 19.9754C4.14151 19.8768 3.31799 19.6225 2.56657 19.1106C0.903505 17.9789 0.0239083 16.4322 0.0110909 14.4341C-0.00813528 11.4839 0.00307997 8.53363 0.00788651 5.58338C0.00788651 4.61215 0.203352 3.67907 0.70163 2.83819C1.79912 0.981569 3.44616 0.0246467 5.61551 0.0103405C8.53628 -0.00714476 11.4587 0.00239267 14.3794 0.0103405C14.7543 0.0103405 15.1357 0.042132 15.5042 0.110484C16.7987 0.348919 17.8722 0.983159 18.7165 1.983C19.2452 2.6077 19.633 3.31188 19.8076 4.1178C19.8797 4.45002 19.9374 4.78701 20.0015 5.12082H19.9999ZM1.77829 9.99127C1.77829 11.4441 1.77829 12.897 1.77829 14.3499C1.77829 14.8029 1.82636 15.2512 1.98177 15.6819C2.54894 17.2508 3.9124 18.1998 5.62993 18.203C8.5443 18.2078 11.4603 18.2125 14.3746 18.195C14.8104 18.1919 15.2638 18.1299 15.6756 17.9932C17.2682 17.4591 18.2215 16.092 18.2247 14.3864C18.2295 11.468 18.2247 8.54952 18.2263 5.63107C18.2263 5.02862 18.1285 4.44207 17.8594 3.90479C17.1512 2.49643 15.9816 1.77795 14.4019 1.77C11.4667 1.7541 8.53308 1.75887 5.59789 1.77C4.14151 1.77477 3.01838 2.40424 2.27337 3.65046C1.90807 4.26245 1.77349 4.94437 1.77509 5.65491C1.77509 7.10142 1.77509 8.54793 1.77509 9.99286L1.77829 9.99127Z" fill="#D4C17F"/>
</svg>
