<svg width="50" height="64" viewBox="0 0 50 64" fill="none" xmlns="http://www.w3.org/2000/svg">
<g clip-path="url(#clip0_84172_39)">
<path d="M46.2203 50.0145C46.2203 50.0145 47.1289 48.2337 47.8109 46.2341C51.036 36.7811 49.7435 28.2912 49.7435 28.2912C49.161 24.4571 48.0595 21.6675 47.6598 20.6926C46.0334 16.7172 43.8701 13.9376 43.2477 13.1676C39.3725 8.36652 34.1373 5.04973 27.9596 2.80736C19.2349 -0.362196 10.1205 -0.0319089 1.04987 0.0496679C0.71583 0.0536473 0.196882 0.584891 0.101443 0.958951C-0.065575 1.59764 0.0238989 2.30596 0.0258872 2.98643C0.0676417 17.4255 0.113373 31.8646 0.153139 46.3037C0.167057 51.7435 0.173022 57.1833 0.171034 62.6231C0.171034 63.403 0.17501 64.0079 1.27256 64.0019C5.62894 63.9761 6.25725 63.9442 10.4327 63.9442C13.3078 63.9442 13.0175 63.9442 19.9766 63.7452C25.2615 63.594 27.1683 63.1981 28.3275 62.9494C29.8088 62.631 32.5188 61.9187 35.2866 60.5618C37.6864 59.3859 39.3169 58.1184 40.2573 57.3783C42.0369 55.9795 42.9495 54.9449 43.2398 54.5927C43.4346 54.356 44.0968 53.5322 44.8304 52.4041C45.4786 51.4112 45.9419 50.5616 46.2223 50.0165L46.2203 50.0145ZM36.3463 14.2798C36.4 13.7983 36.5153 13.3228 36.6605 12.521C37.6328 13.3765 38.9749 14.6738 40.3349 16.4426C41.2535 17.6344 43.0768 19.9465 44.232 22.9548C46.8665 29.8212 45.8485 36.5205 45.4249 38.6733C44.7509 42.0956 44.0212 44.137 43.039 46.4331C42.0866 48.6615 40.7166 50.3647 40.2553 51.0093C38.7104 53.1661 36.9229 54.4773 35.6822 55.3866C33.8649 56.7197 31.9044 57.5753 31.9044 57.5753L31.9124 57.7683C31.9124 57.7683 31.9124 57.7683 31.9044 57.7742C32.2425 53.6795 32.7137 48.0606 33.2963 41.3435C33.2963 41.3435 35.0778 25.5136 36.3443 14.2798H36.3463ZM6.299 4.46874C12.6278 4.50058 18.9486 4.7274 25.0249 6.72703C27.2876 7.47117 29.427 8.59335 31.6221 9.54043C32.2206 9.79909 32.3816 9.94633 32.3021 10.6188C31.5247 17.33 30.7651 24.2999 30.0414 31.015C29.4111 36.8587 28.8226 42.7064 28.2281 48.5521C28.1346 49.4653 28.2082 48.6993 28.1267 49.6146C28.0909 50.0145 27.8861 52.0977 27.729 52.7901C20.2271 36.5841 12.8724 20.6946 5.43608 4.62991C5.82181 4.42099 6.07631 4.46874 6.299 4.46874ZM4.19537 12.8911C4.19537 12.8334 4.38227 12.5787 4.45584 12.5448C7.35479 18.9337 10.212 25.229 13.2402 31.9044C10.3094 31.9044 7.63912 31.9283 4.97081 31.8706C4.69046 31.8646 4.18344 31.3871 4.18344 31.1265C4.15362 25.048 4.17748 18.9695 4.19736 12.8911H4.19537ZM6.25526 60.1618C6.81994 60.2175 4.99666 60.1002 4.62286 59.6744C4.40414 59.4257 4.30274 59.0695 4.30672 58.584C4.36438 51.4252 4.38028 44.2643 4.36637 37.1054C4.36637 36.1206 4.67257 35.7624 5.66871 35.7803C8.30521 35.8261 10.9437 35.7923 13.5822 35.7903C15.7097 35.7903 15.66 35.8121 16.5368 37.7083C19.2349 43.55 22.0683 49.328 24.7107 55.1956C25.0965 56.0512 25.7268 57.243 26.536 58.97C26.027 59.0854 25.5538 59.2207 24.7465 59.368C24.4562 59.4157 23.9671 59.4933 23.3547 59.5669C22.4023 59.6803 21.6169 59.7261 21.0185 59.752C19.6565 59.8097 13.9858 59.9788 6.25526 60.1638V60.1618Z" fill="#D4C17F"/>
</g>
<defs>
<clipPath id="clip0_84172_39">
<rect width="50" height="64" fill="white"/>
</clipPath>
</defs>
</svg>
