<svg width="35" height="21" viewBox="0 0 35 21" fill="none" xmlns="http://www.w3.org/2000/svg">
<path d="M20.4532 4.93635C20.4532 6.15433 20.4532 7.3739 20.4532 8.59189C20.4532 8.78696 20.468 8.97727 20.5241 9.16599C20.5587 9.28493 20.6115 9.39753 20.6906 9.49586C20.8258 9.66238 20.999 9.73534 21.2199 9.69727C21.403 9.66556 21.5695 9.60212 21.7278 9.51013C21.9059 9.40546 22.0642 9.28018 22.2225 9.15013C22.6957 8.76 23.108 8.31277 23.4938 7.84334C24.2671 6.89813 24.9498 5.89424 25.5731 4.85388C26.3102 3.62638 26.973 2.36399 27.5501 1.05878C27.6079 0.928738 27.6738 0.805036 27.7546 0.687679C28.0019 0.334019 28.3449 0.121506 28.7786 0.0406245C28.9105 0.0152498 29.0441 0.0041484 29.1776 0.0041484C30.4869 0.0041484 31.7961 0.0041484 33.107 0.0041484C33.2966 0.0041484 33.4846 0.0215935 33.666 0.0771006C33.6775 0.0802724 33.6891 0.0818583 33.7006 0.0866161C34.1096 0.223005 34.3091 0.492611 34.2843 0.933496C34.2711 1.16345 34.2035 1.38231 34.1359 1.60117C34.0238 1.96117 33.8655 2.30373 33.699 2.64153C33.3477 3.35043 32.9471 4.03238 32.5315 4.70798C31.4729 6.41918 30.3253 8.07488 29.1381 9.70679C29.0441 9.83683 28.955 9.97005 28.8759 10.108C28.8379 10.1746 28.8033 10.2428 28.7703 10.311C28.6401 10.579 28.6549 10.8439 28.7967 11.104C28.899 11.2911 29.0259 11.4624 29.1809 11.6146C29.5206 11.9509 29.8603 12.2855 30.2 12.6233C30.9931 13.4099 31.7714 14.2092 32.515 15.0386C33.0081 15.589 33.4863 16.1504 33.9249 16.7419C34.1903 17.0987 34.441 17.4667 34.652 17.8568C34.7724 18.0804 34.8829 18.3088 34.9439 18.5546C35 18.7782 35.0247 19.0034 34.9703 19.2318C34.9093 19.4871 34.7576 19.6743 34.5234 19.8027C34.3569 19.8947 34.1772 19.9455 33.9892 19.9708C33.8391 19.9915 33.6874 20.0026 33.5341 20.001C32.2908 20.001 31.0492 19.9978 29.8059 20.001C29.2865 20.0026 28.8264 19.8519 28.4208 19.5379C28.1965 19.365 27.9888 19.1763 27.7942 18.9733C27.4792 18.6466 27.1676 18.3167 26.8576 17.9869C26.4322 17.5349 26.0018 17.0876 25.5582 16.6531C24.9383 16.0457 24.2853 15.4764 23.5845 14.9562C23.2712 14.723 22.9447 14.5074 22.5951 14.3266C22.3148 14.1822 22.0263 14.0601 21.708 14.0157C21.4706 13.9824 21.2348 13.9856 20.999 14.0348C20.8077 14.0744 20.6725 14.1854 20.5966 14.3599C20.5323 14.5074 20.5043 14.6628 20.4862 14.8198C20.4581 15.064 20.4449 15.3098 20.4466 15.5572C20.4499 16.5421 20.4532 17.5254 20.4548 18.5102C20.4548 18.6736 20.4532 18.8369 20.4202 19.0003C20.3575 19.3174 20.1762 19.5426 19.881 19.6886C19.6568 19.7996 19.416 19.8614 19.1687 19.8995C18.5718 19.9915 17.9699 20.0105 17.3648 19.9883C15.48 19.9185 13.7289 19.3936 12.075 18.5467C10.6553 17.8203 9.39387 16.891 8.25612 15.8015C7.524 15.1021 6.85948 14.3472 6.25598 13.5431C5.24354 12.1935 4.29541 10.8042 3.43302 9.36106C2.53106 7.85285 1.72309 6.30024 1.05528 4.68102C0.727145 3.88647 0.435286 3.08083 0.21433 2.25139C0.121991 1.88663 0.0313001 1.51553 0.00491736 1.13491C-0.00662509 0.969972 0.00656628 0.808208 0.0527361 0.648031C0.121991 0.414901 0.272043 0.24838 0.497945 0.142123C0.676028 0.0596555 0.867303 0.0231794 1.06188 0.00890615C1.15916 0.000976562 1.25645 0.000976563 1.35373 0.000976563C2.60197 0.000976563 3.85185 0.000976563 5.10008 0.000976563C5.26498 0.000976563 5.42822 0.00732023 5.59146 0.0358667C5.93114 0.0961316 6.20321 0.257895 6.40933 0.522743C6.5198 0.66389 6.60555 0.81931 6.6814 0.979487C6.80837 1.24592 6.90071 1.52504 7.00294 1.79941C7.79277 3.91343 8.76234 5.94817 9.9644 7.87505C10.4063 8.58396 10.8812 9.27066 11.422 9.91454C11.6859 10.2301 11.9645 10.5315 12.2811 10.7995C12.446 10.939 12.6208 11.0659 12.817 11.1627C12.972 11.2388 13.1353 11.2721 13.3101 11.2594C13.5261 11.242 13.6745 11.142 13.7602 10.9533C13.8245 10.8122 13.8526 10.6631 13.8707 10.5108C13.8971 10.2888 13.9053 10.0668 13.9053 9.84476C13.9053 8.07488 13.9086 6.30658 13.902 4.5367C13.9004 3.99432 13.8014 3.46462 13.6085 2.95395C13.475 2.59871 13.282 2.27518 13.0429 1.97544C12.9424 1.85016 12.8385 1.72645 12.7379 1.60275C12.6554 1.50125 12.5763 1.39817 12.5103 1.28557C12.1525 0.686093 12.601 0.0659992 13.2243 0.00732023C13.2969 0.000976562 13.3711 0.000976562 13.4436 0.000976562C15.4009 0.000976563 17.3549 0.000976563 19.3105 0.000976563C19.4622 0.000976563 19.6139 0.00256248 19.7639 0.0406245C20.0212 0.107233 20.2058 0.253137 20.313 0.489439C20.4021 0.686093 20.4318 0.893848 20.4466 1.10477C20.4548 1.21579 20.4532 1.3268 20.4532 1.43782C20.4532 2.60347 20.4532 3.76912 20.4532 4.93476V4.93635Z" fill="#D4C17F"/>
</svg>
