<svg width="20" height="21" viewBox="0 0 20 21" fill="none" xmlns="http://www.w3.org/2000/svg">
<path d="M14.6532 11.9893C13.9918 11.5761 13.3402 11.146 12.6492 10.7817C12.4389 10.6706 12.2742 10.7266 12.1158 10.8981C11.8509 11.1833 11.5654 11.449 11.2942 11.7289C11.1295 11.8978 10.9612 11.912 10.7527 11.8036C9.34304 11.0758 8.32004 9.98549 7.6452 8.56282C7.5369 8.33534 7.57987 8.17272 7.77319 8.01011C8.02737 7.79595 8.28245 7.57646 8.45429 7.28233C8.53574 7.14282 8.58228 7.00864 8.52948 6.84158C8.31915 6.17601 8.11866 5.50689 7.91371 4.83954C7.86717 4.68847 7.80809 4.54452 7.66221 4.46099C7.32747 4.26905 6.55865 4.32503 6.25614 4.56407C5.58219 5.09724 5.20092 5.78413 5.14901 6.63898C5.10425 7.23346 5.22598 7.79951 5.46584 8.32912C6.66874 10.9905 8.45787 13.069 11.3085 14.0935C11.8151 14.2757 12.3127 14.3619 12.8488 14.2837C13.9398 14.1238 14.7042 13.3933 14.7946 12.3999C14.8089 12.2408 14.8179 12.0924 14.6541 11.9902L14.6532 11.9893Z" fill="#D4C17F"/>
<path d="M10.1548 0.000976562C4.71666 0.000976562 0.309604 4.39694 0.309604 9.82014C0.309604 11.0535 0.538728 12.2336 0.954909 13.3213C0.953119 13.3213 0.951329 13.3222 0.949539 13.3231C0.98713 13.4172 1.02651 13.5114 1.06768 13.6047C1.06768 13.6047 1.06768 13.6056 1.06768 13.6065C1.06768 13.6083 1.06947 13.6101 1.07037 13.6119C1.11691 13.7194 1.16703 13.8251 1.21804 13.9318C1.22878 13.954 1.23952 13.9771 1.25116 13.9993C1.30486 14.1086 1.36035 14.217 1.41942 14.3245C1.43732 14.3574 1.45254 14.3903 1.46775 14.4232C1.48118 14.4543 1.49371 14.4845 1.50534 14.5156C1.59663 14.7608 1.59932 14.9963 1.50803 15.2709C1.00414 16.7949 0.397315 18.2868 0.0088788 19.849C-0.0179716 19.9645 0.0142489 20.0214 0.130601 19.9948C0.399105 19.9059 0.4 19.8988 0.66761 19.817C2.0343 19.3985 3.67933 18.9417 5.04244 18.5117C5.1928 18.4646 5.33153 18.445 5.46936 18.4575C5.49711 18.4601 5.52575 18.4637 5.5535 18.469C5.55439 18.469 5.55618 18.469 5.55708 18.469C5.58393 18.4743 5.61078 18.4806 5.63673 18.4886C5.64389 18.4903 5.65105 18.4939 5.65911 18.4957C5.68059 18.5028 5.70117 18.509 5.72265 18.5179C5.75219 18.5294 5.78172 18.5428 5.81216 18.5579C5.9303 18.6174 6.04844 18.6734 6.16658 18.7267C6.18717 18.7356 6.20686 18.7454 6.22744 18.7543C6.33842 18.804 6.44941 18.8511 6.56128 18.8964C6.58903 18.908 6.61767 18.9186 6.64541 18.9302C6.75371 18.9729 6.86201 19.0146 6.9703 19.0528C7.00073 19.0635 7.03117 19.0733 7.0616 19.0839C7.1502 19.1141 7.23881 19.1435 7.32741 19.171C7.37127 19.1852 7.41602 19.1986 7.45988 19.2119C7.5458 19.2377 7.63172 19.2617 7.71764 19.2848C7.76687 19.2981 7.81609 19.3114 7.86532 19.323C7.95482 19.3452 8.04432 19.3665 8.13382 19.3861C8.192 19.3985 8.25107 19.4109 8.30925 19.4225C8.36116 19.4332 8.41396 19.442 8.46587 19.4518C8.56433 19.4696 8.66188 19.4856 8.76123 19.5007C8.80061 19.506 8.83999 19.5122 8.87848 19.5176C8.99483 19.5336 9.11207 19.5469 9.22932 19.5576C9.25796 19.5602 9.2875 19.5638 9.31614 19.5656C10.3168 19.6509 11.3344 19.5744 12.3637 19.331C13.4466 19.075 14.4222 18.6956 15.2922 18.1953C18.1168 16.4696 20.0008 13.363 20.0008 9.81748C19.9999 4.39694 15.592 0.000976562 10.1548 0.000976562ZM11.5071 17.7252C10.8556 17.8319 10.2174 17.8612 9.59359 17.8185C9.45039 17.8088 9.30808 17.7946 9.16578 17.7768C9.13624 17.7732 9.1076 17.7697 9.07806 17.7652C9.01273 17.7563 8.94829 17.7475 8.88295 17.7368C8.85879 17.7332 8.83462 17.7279 8.81045 17.7244C8.69858 17.7057 8.5876 17.6835 8.47661 17.6595C8.43723 17.6506 8.39785 17.6426 8.35847 17.6328C8.30298 17.6195 8.24749 17.6071 8.192 17.5928C8.13561 17.5786 8.08012 17.5635 8.02463 17.5475C7.95482 17.528 7.88501 17.5075 7.8152 17.4862C7.75971 17.4693 7.70422 17.4515 7.64873 17.4329C7.60487 17.4187 7.56101 17.4036 7.51805 17.3885C7.43661 17.36 7.35606 17.3298 7.27461 17.2987C7.2406 17.2854 7.20659 17.2712 7.17258 17.2578C7.09919 17.2285 7.02669 17.1974 6.95419 17.1663C6.92108 17.1521 6.88886 17.1379 6.85574 17.1228C6.76177 17.0801 6.66779 17.0366 6.57471 16.9904C6.56397 16.985 6.55323 16.9788 6.54249 16.9735C6.45478 16.929 6.36706 16.8837 6.28025 16.8357C6.25429 16.8215 6.22834 16.8073 6.20238 16.7931C6.10572 16.7398 6.00995 16.6847 5.91508 16.6269C5.85512 16.5905 5.79873 16.5656 5.74324 16.5523C5.65105 16.5301 5.55976 16.5389 5.44967 16.5754C5.09883 16.6918 4.74619 16.8037 4.39445 16.9166C4.13579 16.9984 3.87624 17.0801 3.61758 17.1619C3.42068 17.2232 3.22467 17.2854 3.02776 17.3467C2.89441 17.3885 2.76642 17.4675 2.58831 17.4373C2.6984 17.1148 2.80669 16.794 2.91499 16.4732C2.99107 16.2466 3.06804 16.0218 3.14501 15.7961C3.16918 15.7241 3.19424 15.653 3.2184 15.581C3.3088 15.318 3.39919 15.0558 3.49228 14.7937C3.52897 14.6906 3.54508 14.6009 3.53613 14.5138C3.52718 14.4267 3.49228 14.3414 3.42694 14.2454C3.35981 14.1477 3.29627 14.0491 3.23451 13.9495C3.22019 13.9264 3.20587 13.9033 3.19245 13.8802C3.13696 13.7896 3.08325 13.698 3.03224 13.6056C3.02776 13.5976 3.02329 13.5905 3.01881 13.5825C2.89709 13.363 2.7879 13.1409 2.68945 12.917C0.603169 8.15755 3.67486 2.41445 9.14429 1.71866C13.6113 1.15084 17.5959 4.23521 18.2403 8.45524C18.9268 12.9481 15.9571 17.001 11.5062 17.7252H11.5071Z" fill="#D4C17F"/>
</svg>
