<?xml version="1.0" encoding="UTF-8"?>
<svg id="_Слой_2" data-name="Слой 2" xmlns="http://www.w3.org/2000/svg" viewBox="0 0 223.46 225.07">
  <defs>
    <style>
      .cls-1 {
        fill: #fff;
      }
    </style>
  </defs>
  <g id="_Слой_1-2" data-name="Слой 1">
    <g>
      <path class="cls-1" d="M163.72,134.91c-7.39-4.65-14.67-9.49-22.39-13.59-2.35-1.25-4.19-.62-5.96,1.31-2.96,3.21-6.15,6.2-9.18,9.35-1.84,1.9-3.72,2.06-6.05,.84-15.75-8.19-27.18-20.46-34.72-36.47-1.21-2.56-.73-4.39,1.43-6.22,2.84-2.41,5.69-4.88,7.61-8.19,.91-1.57,1.43-3.08,.84-4.96-2.35-7.49-4.59-15.02-6.88-22.53-.52-1.7-1.18-3.32-2.81-4.26-3.74-2.16-12.33-1.53-15.71,1.16-7.53,6-11.79,13.73-12.37,23.35-.5,6.69,.86,13.06,3.54,19.02,13.44,29.95,33.43,53.34,65.28,64.87,5.66,2.05,11.22,3.02,17.21,2.14,12.19-1.8,20.73-10.02,21.74-21.2,.16-1.79,.26-3.46-1.57-4.61Z"/>
      <path class="cls-1" d="M113.46,0C52.7,0,3.46,49.47,3.46,110.5c0,13.88,2.56,27.16,7.21,39.4-.02,0-.04,.01-.06,.02,.42,1.06,.86,2.12,1.32,3.17,0,0,0,.01,0,.02,0,.02,.02,.04,.03,.06,.52,1.21,1.08,2.4,1.65,3.6,.12,.25,.24,.51,.37,.76,.6,1.23,1.22,2.45,1.88,3.66,.2,.37,.37,.74,.54,1.11,.15,.35,.29,.69,.42,1.04,1.02,2.76,1.05,5.41,.03,8.5C11.22,188.99,4.44,205.78,.1,223.36c-.3,1.3,.06,1.94,1.36,1.64,3-1,3.01-1.08,6-2,15.27-4.71,33.65-9.85,48.88-14.69,1.68-.53,3.23-.75,4.77-.61,.31,.03,.63,.07,.94,.13,.01,0,.03,0,.04,0,.3,.06,.6,.13,.89,.22,.08,.02,.16,.06,.25,.08,.24,.08,.47,.15,.71,.25,.33,.13,.66,.28,1,.45,0,0,0,0,0,0,0,0,0,0,0,0,1.32,.67,2.64,1.3,3.96,1.9,.23,.1,.45,.21,.68,.31,1.24,.56,2.48,1.09,3.73,1.6,.31,.13,.63,.25,.94,.38,1.21,.48,2.42,.95,3.63,1.38,.34,.12,.68,.23,1.02,.35,.99,.34,1.98,.67,2.97,.98,.49,.16,.99,.31,1.48,.46,.96,.29,1.92,.56,2.88,.82,.55,.15,1.1,.3,1.65,.43,1,.25,2,.49,3,.71,.65,.14,1.31,.28,1.96,.41,.58,.12,1.17,.22,1.75,.33,1.1,.2,2.19,.38,3.3,.55,.44,.06,.88,.13,1.31,.19,1.3,.18,2.61,.33,3.92,.45,.32,.03,.65,.07,.97,.09,11.18,.96,22.55,.1,34.05-2.64,12.1-2.88,23-7.15,32.72-12.78,31.56-19.42,52.61-54.38,52.61-94.28C223.46,49.47,174.21,0,113.46,0Zm15.11,199.46c-7.28,1.2-14.41,1.53-21.38,1.05-1.6-.11-3.19-.27-4.78-.47-.33-.04-.65-.08-.98-.13-.73-.1-1.45-.2-2.18-.32-.27-.04-.54-.1-.81-.14-1.25-.21-2.49-.46-3.73-.73-.44-.1-.88-.19-1.32-.3-.62-.15-1.24-.29-1.86-.45-.63-.16-1.25-.33-1.87-.51-.78-.22-1.56-.45-2.34-.69-.62-.19-1.24-.39-1.86-.6-.49-.16-.98-.33-1.46-.5-.91-.32-1.81-.66-2.72-1.01-.38-.15-.76-.31-1.14-.46-.82-.33-1.63-.68-2.44-1.03-.37-.16-.73-.32-1.1-.49-1.05-.48-2.1-.97-3.14-1.49-.12-.06-.24-.13-.36-.19-.98-.5-1.96-1.01-2.93-1.55-.29-.16-.58-.32-.87-.48-1.08-.6-2.15-1.22-3.21-1.87h0c-.67-.41-1.3-.69-1.92-.84-1.03-.25-2.05-.15-3.28,.26-3.92,1.31-7.86,2.57-11.79,3.84-2.89,.92-5.79,1.84-8.68,2.76-2.2,.69-4.39,1.39-6.59,2.08-1.49,.47-2.92,1.36-4.91,1.02,1.23-3.63,2.44-7.24,3.65-10.85,.85-2.55,1.71-5.08,2.57-7.62,.27-.81,.55-1.61,.82-2.42,1.01-2.96,2.02-5.91,3.06-8.86,.41-1.16,.59-2.17,.49-3.15-.1-.98-.49-1.94-1.22-3.02-.75-1.1-1.46-2.21-2.15-3.33-.16-.26-.32-.52-.47-.78-.62-1.02-1.22-2.05-1.79-3.09-.05-.09-.1-.17-.15-.26-1.36-2.47-2.58-4.97-3.68-7.49C6.74,91.79,41.06,27.16,102.17,19.33c49.91-6.39,94.43,28.32,101.63,75.81,7.67,50.56-25.51,96.17-75.24,104.32Z"/>
    </g>
  </g>
</svg>